<?xml version="1.0" encoding="UTF-8" standalone="no"?>
<!-- Generator: Adobe Illustrator 22.1.0, SVG Export Plug-In . SVG Version: 6.00 Build 0)  -->

<svg
   xmlns:dc="http://purl.org/dc/elements/1.1/"
   xmlns:cc="http://creativecommons.org/ns#"
   xmlns:rdf="http://www.w3.org/1999/02/22-rdf-syntax-ns#"
   xmlns:svg="http://www.w3.org/2000/svg"
   xmlns="http://www.w3.org/2000/svg"
   xmlns:sodipodi="http://sodipodi.sourceforge.net/DTD/sodipodi-0.dtd"
   xmlns:inkscape="http://www.inkscape.org/namespaces/inkscape"
   version="1.1"
   id="Layer_1"
   x="0px"
   y="0px"
   viewBox="0 0 494.50436 78.900002"
   xml:space="preserve"
   sodipodi:docname="logo.svg"
   width="494.50436"
   height="78.900002"
   inkscape:version="0.92.4 (5da689c313, 2019-01-14)"><metadata
     id="metadata55"><rdf:RDF><cc:Work
         rdf:about=""><dc:format>image/svg+xml</dc:format><dc:type
           rdf:resource="http://purl.org/dc/dcmitype/StillImage" /><dc:title /></cc:Work></rdf:RDF></metadata><defs
     id="defs53" /><sodipodi:namedview
     pagecolor="#ffffff"
     bordercolor="#666666"
     borderopacity="1"
     objecttolerance="10"
     gridtolerance="10"
     guidetolerance="10"
     inkscape:pageopacity="0"
     inkscape:pageshadow="2"
     inkscape:window-width="1920"
     inkscape:window-height="1017"
     id="namedview51"
     showgrid="false"
     inkscape:pagecheckerboard="true"
     inkscape:zoom="2.8686869"
     inkscape:cx="285.16638"
     inkscape:cy="38.999998"
     inkscape:window-x="-8"
     inkscape:window-y="-8"
     inkscape:window-maximized="1"
     inkscape:current-layer="Layer_1" /><style
     type="text/css"
     id="style2">
	.st0{display:none;fill:#0074AA;}
	.st1{fill:#FFFFFF;}
</style><rect
     class="st0"
     width="792"
     height="612"
     id="rect4"
     x="-72.800003"
     y="-266.10001"
     style="display:none;fill:#0074aa" /><g
     id="g48"
     transform="translate(-72.8,-266.1)"><g
       id="g22"><g
         id="g8" /><g
         id="g12" /><g
         id="g16" /><g
         id="g20" /></g><g
       id="g40"><g
         id="g26" /><g
         id="g30" /><g
         id="g34" /><g
         id="g38"><g
           id="g45"
           transform="matrix(0.855,0,0,0.855,70.34675,44.3845)"><g
             id="g3768"
             transform="matrix(0.85,0,0,0.85,72.7725,45.915)"><g
               id="g3778"
               transform="matrix(0.95,0,0,0.95,-99.58151,15.305)"><path
                 style="fill:#ffffff"
                 inkscape:connector-curvature="0"
                 id="path6"
                 d="m 237.2,331.6 c -0.9,-0.6 -1.4,-1.6 -1.4,-2.9 0,-2.1 1.6,-3.7 3.6,-3.7 1,0 1.8,0.4 2.3,0.9 6.3,5.4 12.7,8 21.2,8 9,0 15,-4.8 15,-11.4 v -0.2 c 0,-6.2 -3.4,-9.8 -17.5,-12.8 -15.5,-3.4 -22.6,-8.3 -22.6,-19.4 v -0.2 c 0,-10.6 9.3,-18.3 22.1,-18.3 8.8,0 15.3,2.2 21.4,6.6 0.8,0.6 1.6,1.6 1.6,3.1 0,2 -1.6,3.6 -3.6,3.6 -0.9,0 -1.5,-0.2 -2.2,-0.7 -5.7,-4.1 -11.1,-5.9 -17.4,-5.9 -8.7,0 -14.3,4.8 -14.3,10.8 v 0.2 c 0,6.3 3.5,9.9 18.2,13.1 15,3.3 21.9,8.7 21.9,19 v 0.2 c 0,11.5 -9.6,19 -22.9,19 -9.7,0 -17.9,-3 -25.4,-9 z"
                 class="st1" /><path
                 style="fill:#ffffff"
                 inkscape:connector-curvature="0"
                 id="path10"
                 d="m 294.3,306.3 v -0.2 c 0,-18.5 13.9,-34.7 34.4,-34.7 20.5,0 34.2,16 34.2,34.5 v 0.2 c 0,18.5 -13.9,34.7 -34.4,34.7 -20.5,0 -34.2,-16 -34.2,-34.5 z m 60.7,0 v -0.2 c 0,-15.3 -11.1,-27.7 -26.5,-27.7 -15.4,0 -26.3,12.3 -26.3,27.5 v 0.2 c 0,15.3 11.1,27.7 26.5,27.7 15.4,0 26.3,-12.3 26.3,-27.5 z"
                 class="st1" /><path
                 style="fill:#ffffff"
                 inkscape:connector-curvature="0"
                 id="path14"
                 d="m 388.3,279.5 h -19.5 c -1.9,0 -3.6,-1.5 -3.6,-3.5 0,-1.9 1.6,-3.6 3.6,-3.6 h 46.6 c 1.9,0 3.6,1.6 3.6,3.6 0,1.9 -1.6,3.5 -3.6,3.5 h -19.5 v 56.8 c 0,2.1 -1.7,3.8 -3.8,3.8 -2.1,0 -3.8,-1.7 -3.8,-3.8 z"
                 class="st1" /><path
                 style="fill:#ffffff"
                 inkscape:connector-curvature="0"
                 id="path18"
                 d="m 429.5,275.9 c 0,-2.1 1.7,-3.8 3.7,-3.8 2.1,0 3.8,1.7 3.8,3.8 v 60.5 c 0,2.1 -1.7,3.8 -3.8,3.8 -2,0 -3.7,-1.7 -3.7,-3.8 z"
                 class="st1" /><path
                 style="fill:#ffffff"
                 inkscape:connector-curvature="0"
                 id="path24"
                 d="m 475.1,332.2 c -1.3,-1 -2.3,-2.6 -2.3,-4.5 0,-3.1 2.5,-5.5 5.6,-5.5 1.6,0 2.7,0.5 3.5,1.1 5.6,4.4 11.5,6.9 18.8,6.9 7.3,0 11.9,-3.5 11.9,-8.4 v -0.2 c 0,-4.8 -2.7,-7.4 -15.2,-10.3 C 483.1,307.8 475,303.6 475,291.2 V 291 c 0,-11.5 9.6,-19.5 22.9,-19.5 8.4,0 15.3,2.2 21.3,6.2 1.3,0.8 2.6,2.4 2.6,4.7 0,3.1 -2.5,5.5 -5.6,5.5 -1.2,0 -2.1,-0.3 -3.1,-0.9 -5.2,-3.4 -10.2,-5.1 -15.5,-5.1 -6.9,0 -10.9,3.6 -10.9,8 v 0.2 c 0,5.2 3.1,7.5 16,10.6 14.2,3.5 21.5,8.5 21.5,19.7 v 0.2 c 0,12.6 -9.9,20.1 -24,20.1 -9,-0.1 -17.6,-2.9 -25.1,-8.5 z"
                 class="st1" /><path
                 style="fill:#ffffff"
                 inkscape:connector-curvature="0"
                 id="path28"
                 d="m 536.4,278.1 c 0,-3.3 2.6,-5.9 5.9,-5.9 h 1.2 c 2.9,0 4.5,1.4 6.1,3.5 l 33.6,43.5 v -41.3 c 0,-3.2 2.6,-5.8 5.8,-5.8 3.3,0 5.9,2.6 5.9,5.8 v 56.4 c 0,3.3 -2.5,5.9 -5.8,5.9 h -0.5 c -2.8,0 -4.5,-1.4 -6.1,-3.6 L 548,291.8 v 42.6 c 0,3.2 -2.6,5.8 -5.8,5.8 -3.3,0 -5.9,-2.6 -5.9,-5.8 v -56.3 z"
                 class="st1" /><path
                 style="fill:#ffffff"
                 inkscape:connector-curvature="0"
                 id="path32"
                 d="m 606.5,332 25,-55.7 c 1.3,-3 3.7,-4.8 7.1,-4.8 h 0.6 c 3.4,0 5.7,1.8 7,4.8 l 25,55.7 c 0.5,0.9 0.7,1.7 0.7,2.5 0,3.2 -2.4,5.7 -5.6,5.7 -2.8,0 -4.7,-1.6 -5.8,-4.1 L 655,323.5 h -32.6 l -5.7,13 c -1,2.4 -3,3.7 -5.5,3.7 -3.1,0 -5.5,-2.4 -5.5,-5.5 0,-0.9 0.3,-1.7 0.8,-2.7 z m 43.9,-19 -11.8,-27.2 -11.8,27.2 z"
                 class="st1" /><path
                 style="fill:#ffffff"
                 inkscape:connector-curvature="0"
                 id="path36"
                 d="m 682.6,278.4 c 0,-3.4 2.6,-5.9 5.9,-5.9 H 709 c 15.7,0 25.5,8.9 25.5,22.5 v 0.2 c 0,15.1 -12.1,22.9 -26.9,22.9 h -13.3 v 16.2 c 0,3.3 -2.6,5.9 -5.9,5.9 -3.4,0 -5.9,-2.6 -5.9,-5.9 v -55.9 z m 25.5,29 c 8.9,0 14.5,-5 14.5,-12 v -0.2 c 0,-7.9 -5.7,-12 -14.5,-12 h -13.7 v 24.2 z"
                 class="st1" /></g></g></g></g></g><g
       id="g46"><path
         class="st1"
         d="m 167.6,266.1 h -34.2 c 0,0 -16.3,0 -20.6,15.6 H 92.7 c -1.8,0 -3.3,1.5 -3.3,3.3 0,1.8 1.5,3.3 3.3,3.3 h 18.7 l -2,10.5 H 76.1 c -1.8,0 -3.3,1.5 -3.3,3.3 0,1.8 1.5,3.3 3.3,3.3 h 32.1 l -1.8,9.6 h -4.8 c -1.8,0 -3.3,1.5 -3.3,3.3 0,1.8 1.5,3.3 3.3,3.3 h 3.5 l -1.1,5.8 c 0,0 -3.3,17.6 14.4,17.6 h 34.2 c 0,0 17.7,0 21.1,-17.6 l 8.3,-43.7 c 0,0.1 3.3,-17.6 -14.4,-17.6 z m 1.7,22.5 -6.4,34.1 c -2,10.7 -12.7,10.7 -12.7,10.7 h -24.5 c -10.7,0 -8.7,-10.7 -8.7,-10.7 l 6.4,-34.1 c 2,-10.7 12.7,-10.7 12.7,-10.7 h 24.5 c 10.7,0 8.7,10.7 8.7,10.7 z"
         id="path42"
         inkscape:connector-curvature="0"
         style="fill:#ffffff" /><path
         class="st1"
         d="m 90.9,315 h -3 c -1.8,0 -3.3,1.5 -3.3,3.3 0,1.8 1.5,3.3 3.3,3.3 h 3 c 1.8,0 3.3,-1.5 3.3,-3.3 0,-1.8 -1.5,-3.3 -3.3,-3.3 z"
         id="path44"
         inkscape:connector-curvature="0"
         style="fill:#ffffff" /></g></g></svg>